<?xml version="1.0" encoding="UTF-8"?>
<svg xmlns="http://www.w3.org/2000/svg" viewBox="-26 -36 1776 712" width="1776" height="712"><style>
text{font-family:Helvetica, Arial, sans-serif;font-size:12px;fill:#111418;dominant-baseline:auto}
.d-mono{font-family:Menlo, Consolas, monospace;font-size:11px;fill:#2d343c}
.d-name{font-family:Helvetica, Arial, sans-serif;font-size:12.5px;font-weight:600;letter-spacing:.04em}
.d-italic{font-style:italic}
.d-comp{font-size:10.5px;font-style:italic;fill:#5b6470}
.d-frame{fill:none;stroke:#111418;stroke-width:1}
.d-frame-tab{fill:#ffffff;stroke:#111418;stroke-width:1}
.d-sym .d-shape{fill:#f4f8fd;stroke:#111418}
.d-sym .d-rule,.d-sym .d-stick{stroke:#111418}
.d-sym.c-b .d-shape{fill:#fdf8ee;stroke:#111418}
.d-sym.c-b .d-rule,.d-sym.c-b .d-stick{stroke:#111418}
.d-sym.c-c .d-shape{fill:#fbf3f6;stroke:#111418}
.d-sym.c-c .d-rule,.d-sym.c-c .d-stick{stroke:#111418}
.d-sym.c-n .d-shape{fill:#fffbe6;stroke:#5b6470}
.d-sym.c-n .d-rule,.d-sym.c-n .d-stick{stroke:#5b6470}
.d-shape{stroke-width:1.2}
.d-shape.dashed{stroke-dasharray:6 4}
.d-rule{stroke-width:.8;opacity:.55;fill:none}
.d-stick{fill:none;stroke-width:1.5}
.d-port{fill:#ffffff;stroke:#111418;stroke-width:1.2}
.d-port-dir{fill:#111418;stroke:none}
.d-line{fill:none;stroke:#2d343c;stroke-width:1.2}
.d-line.dashed{stroke-dasharray:6 4}
.d-head{fill:none;stroke:#2d343c;stroke-width:1.2}
.d-head.filled{fill:#2d343c}
.d-head.hollow{fill:#ffffff}
.d-hit{fill:none;stroke:transparent;stroke-width:12}
.d-label-bg{fill:#ffffff;opacity:.85}
</style><rect x="-26" y="-36" width="1776" height="712" fill="#fff"/><rect class="d-frame" x="-10" y="-20" width="1744" height="680"/><path class="d-frame-tab" d="M-10 -20h358v14l-10 10H-10z"/><text class="d-mono" x="0" y="-4">bdd [package] SysML Modeler architecture [The app]</text><g class="d-symbols"><g class="d-sym " data-sym="sy_010" transform="translate(700 300)"><rect class="d-shape" width="280" height="50"/><text class="d-mono" x="140" y="19" text-anchor="middle">«block»</text><text class="d-name" x="140" y="36" text-anchor="middle">SysML Modeler</text></g><g class="d-sym " data-sym="sy_011" transform="translate(40 40)"><rect class="d-shape" width="170" height="50"/><text class="d-mono" x="85" y="19" text-anchor="middle">«block»</text><text class="d-name" x="85" y="36" text-anchor="middle">Host bridge</text></g><g class="d-sym " data-sym="sy_012" transform="translate(230 40)"><rect class="d-shape" width="170" height="50"/><text class="d-mono" x="85" y="19" text-anchor="middle">«block»</text><text class="d-name" x="85" y="36" text-anchor="middle">Toolbar and menus</text></g><g class="d-sym " data-sym="sy_013" transform="translate(420 40)"><rect class="d-shape" width="170" height="50"/><text class="d-mono" x="85" y="19" text-anchor="middle">«block»</text><text class="d-name" x="85" y="36" text-anchor="middle">Canvas</text></g><g class="d-sym " data-sym="sy_014" transform="translate(610 40)"><rect class="d-shape" width="170" height="50"/><text class="d-mono" x="85" y="19" text-anchor="middle">«block»</text><text class="d-name" x="85" y="36" text-anchor="middle">Containment tree</text></g><g class="d-sym " data-sym="sy_015" transform="translate(800 40)"><rect class="d-shape" width="170" height="50"/><text class="d-mono" x="85" y="19" text-anchor="middle">«block»</text><text class="d-name" x="85" y="36" text-anchor="middle">Specification panel</text></g><g class="d-sym " data-sym="sy_016" transform="translate(990 40)"><rect class="d-shape" width="170" height="50"/><text class="d-mono" x="85" y="19" text-anchor="middle">«block»</text><text class="d-name" x="85" y="36" text-anchor="middle">Checks panel</text></g><g class="d-sym " data-sym="sy_017" transform="translate(1180 40)"><rect class="d-shape" width="170" height="50"/><text class="d-mono" x="85" y="19" text-anchor="middle">«block»</text><text class="d-name" x="85" y="36" text-anchor="middle">Generated views</text></g><g class="d-sym " data-sym="sy_018" transform="translate(1370 40)"><rect class="d-shape" width="170" height="50"/><text class="d-mono" x="85" y="19" text-anchor="middle">«block»</text><text class="d-name" x="85" y="36" text-anchor="middle">Renderer</text></g><g class="d-sym " data-sym="sy_019" transform="translate(40 560)"><rect class="d-shape" width="150" height="50"/><text class="d-mono" x="75" y="19" text-anchor="middle">«block»</text><text class="d-name" x="75" y="36" text-anchor="middle">Store</text></g><g class="d-sym " data-sym="sy_020" transform="translate(206 560)"><rect class="d-shape" width="150" height="50"/><text class="d-mono" x="75" y="19" text-anchor="middle">«block»</text><text class="d-name" x="75" y="36" text-anchor="middle">Actions</text></g><g class="d-sym " data-sym="sy_021" transform="translate(372 560)"><rect class="d-shape" width="150" height="50"/><text class="d-mono" x="75" y="19" text-anchor="middle">«block»</text><text class="d-name" x="75" y="36" text-anchor="middle">Sync</text></g><g class="d-sym " data-sym="sy_022" transform="translate(538 560)"><rect class="d-shape" width="154" height="50"/><text class="d-mono" x="77" y="19" text-anchor="middle">«block»</text><text class="d-name" x="77" y="36" text-anchor="middle">Model repository</text></g><g class="d-sym " data-sym="sy_023" transform="translate(704 560)"><rect class="d-shape" width="150" height="50"/><text class="d-mono" x="75" y="19" text-anchor="middle">«block»</text><text class="d-name" x="75" y="36" text-anchor="middle">Vocabulary</text></g><g class="d-sym " data-sym="sy_024" transform="translate(870 560)"><rect class="d-shape" width="150" height="50"/><text class="d-mono" x="75" y="19" text-anchor="middle">«block»</text><text class="d-name" x="75" y="36" text-anchor="middle">Checks</text></g><g class="d-sym " data-sym="sy_025" transform="translate(1036 560)"><rect class="d-shape" width="150" height="50"/><text class="d-mono" x="75" y="19" text-anchor="middle">«block»</text><text class="d-name" x="75" y="36" text-anchor="middle">Layout</text></g><g class="d-sym " data-sym="sy_026" transform="translate(1202 560)"><rect class="d-shape" width="150" height="50"/><text class="d-mono" x="75" y="19" text-anchor="middle">«block»</text><text class="d-name" x="75" y="36" text-anchor="middle">Native format</text></g><g class="d-sym " data-sym="sy_027" transform="translate(1368 560)"><rect class="d-shape" width="150" height="50"/><text class="d-mono" x="75" y="19" text-anchor="middle">«block»</text><text class="d-name" x="75" y="36" text-anchor="middle">XMI</text></g><g class="d-sym " data-sym="sy_028" transform="translate(1534 560)"><rect class="d-shape" width="150" height="50"/><text class="d-mono" x="75" y="19" text-anchor="middle">«block»</text><text class="d-name" x="75" y="36" text-anchor="middle">Image export</text></g></g><g class="d-paths"><g class="d-path" data-path="pa_014"><path class="d-hit" d="M840 300L840 195L125 195L125 90"/><path class="d-line" d="M840 300L840 195L125 195L125 90"/><path class="d-head filled" transform="translate(840 300) rotate(90)" d="M0 0L-9 -5L-18 0L-9 5Z"/><text class="d-mono" x="131" y="114">host</text><text class="d-mono" x="119" y="114" text-anchor="end">1</text></g><g class="d-path" data-path="pa_015"><path class="d-hit" d="M840 300L840 195L315 195L315 90"/><path class="d-line" d="M840 300L840 195L315 195L315 90"/><path class="d-head filled" transform="translate(840 300) rotate(90)" d="M0 0L-9 -5L-18 0L-9 5Z"/><text class="d-mono" x="321" y="114">toolbar</text><text class="d-mono" x="309" y="114" text-anchor="end">1</text></g><g class="d-path" data-path="pa_016"><path class="d-hit" d="M840 300L840 195L505 195L505 90"/><path class="d-line" d="M840 300L840 195L505 195L505 90"/><path class="d-head filled" transform="translate(840 300) rotate(90)" d="M0 0L-9 -5L-18 0L-9 5Z"/><text class="d-mono" x="511" y="114">canvas</text><text class="d-mono" x="499" y="114" text-anchor="end">1</text></g><g class="d-path" data-path="pa_017"><path class="d-hit" d="M840 300L840 195L695 195L695 90"/><path class="d-line" d="M840 300L840 195L695 195L695 90"/><path class="d-head filled" transform="translate(840 300) rotate(90)" d="M0 0L-9 -5L-18 0L-9 5Z"/><text class="d-mono" x="701" y="114">tree</text><text class="d-mono" x="689" y="114" text-anchor="end">1</text></g><g class="d-path" data-path="pa_018"><path class="d-hit" d="M840 300L840 195L885 195L885 90"/><path class="d-line" d="M840 300L840 195L885 195L885 90"/><path class="d-head filled" transform="translate(840 300) rotate(90)" d="M0 0L-9 -5L-18 0L-9 5Z"/><text class="d-mono" x="891" y="114">spec</text><text class="d-mono" x="879" y="114" text-anchor="end">1</text></g><g class="d-path" data-path="pa_019"><path class="d-hit" d="M840 300L840 195L1075 195L1075 90"/><path class="d-line" d="M840 300L840 195L1075 195L1075 90"/><path class="d-head filled" transform="translate(840 300) rotate(90)" d="M0 0L-9 -5L-18 0L-9 5Z"/><text class="d-mono" x="1081" y="114">checksPanel</text><text class="d-mono" x="1069" y="114" text-anchor="end">1</text></g><g class="d-path" data-path="pa_020"><path class="d-hit" d="M840 300L840 195L1265 195L1265 90"/><path class="d-line" d="M840 300L840 195L1265 195L1265 90"/><path class="d-head filled" transform="translate(840 300) rotate(90)" d="M0 0L-9 -5L-18 0L-9 5Z"/><text class="d-mono" x="1271" y="114">views</text><text class="d-mono" x="1259" y="114" text-anchor="end">1</text></g><g class="d-path" data-path="pa_021"><path class="d-hit" d="M840 300L840 195L1455 195L1455 90"/><path class="d-line" d="M840 300L840 195L1455 195L1455 90"/><path class="d-head filled" transform="translate(840 300) rotate(90)" d="M0 0L-9 -5L-18 0L-9 5Z"/><text class="d-mono" x="1461" y="114">renderer</text><text class="d-mono" x="1449" y="114" text-anchor="end">1</text></g><g class="d-path" data-path="pa_022"><path class="d-hit" d="M840 350L840 455L115 455L115 560"/><path class="d-line" d="M840 350L840 455L115 455L115 560"/><path class="d-head filled" transform="translate(840 350) rotate(-90)" d="M0 0L-9 -5L-18 0L-9 5Z"/><text class="d-mono" x="121" y="544">store</text><text class="d-mono" x="109" y="544" text-anchor="end">1</text></g><g class="d-path" data-path="pa_023"><path class="d-hit" d="M840 350L840 455L281 455L281 560"/><path class="d-line" d="M840 350L840 455L281 455L281 560"/><path class="d-head filled" transform="translate(840 350) rotate(-90)" d="M0 0L-9 -5L-18 0L-9 5Z"/><text class="d-mono" x="287" y="544">actions</text><text class="d-mono" x="275" y="544" text-anchor="end">1</text></g><g class="d-path" data-path="pa_024"><path class="d-hit" d="M840 350L840 455L447 455L447 560"/><path class="d-line" d="M840 350L840 455L447 455L447 560"/><path class="d-head filled" transform="translate(840 350) rotate(-90)" d="M0 0L-9 -5L-18 0L-9 5Z"/><text class="d-mono" x="453" y="544">sync</text><text class="d-mono" x="441" y="544" text-anchor="end">1</text></g><g class="d-path" data-path="pa_025"><path class="d-hit" d="M840 350L840 455L615 455L615 560"/><path class="d-line" d="M840 350L840 455L615 455L615 560"/><path class="d-head filled" transform="translate(840 350) rotate(-90)" d="M0 0L-9 -5L-18 0L-9 5Z"/><text class="d-mono" x="621" y="544">repository</text><text class="d-mono" x="609" y="544" text-anchor="end">1</text></g><g class="d-path" data-path="pa_026"><path class="d-hit" d="M840 350L840 455L779 455L779 560"/><path class="d-line" d="M840 350L840 455L779 455L779 560"/><path class="d-head filled" transform="translate(840 350) rotate(-90)" d="M0 0L-9 -5L-18 0L-9 5Z"/><text class="d-mono" x="785" y="544">vocabulary</text><text class="d-mono" x="773" y="544" text-anchor="end">1</text></g><g class="d-path" data-path="pa_027"><path class="d-hit" d="M840 350L840 455L945 455L945 560"/><path class="d-line" d="M840 350L840 455L945 455L945 560"/><path class="d-head filled" transform="translate(840 350) rotate(-90)" d="M0 0L-9 -5L-18 0L-9 5Z"/><text class="d-mono" x="951" y="544">checks</text><text class="d-mono" x="939" y="544" text-anchor="end">1</text></g><g class="d-path" data-path="pa_028"><path class="d-hit" d="M840 350L840 455L1111 455L1111 560"/><path class="d-line" d="M840 350L840 455L1111 455L1111 560"/><path class="d-head filled" transform="translate(840 350) rotate(-90)" d="M0 0L-9 -5L-18 0L-9 5Z"/><text class="d-mono" x="1117" y="544">layout</text><text class="d-mono" x="1105" y="544" text-anchor="end">1</text></g><g class="d-path" data-path="pa_029"><path class="d-hit" d="M840 350L840 455L1277 455L1277 560"/><path class="d-line" d="M840 350L840 455L1277 455L1277 560"/><path class="d-head filled" transform="translate(840 350) rotate(-90)" d="M0 0L-9 -5L-18 0L-9 5Z"/><text class="d-mono" x="1283" y="544">json</text><text class="d-mono" x="1271" y="544" text-anchor="end">1</text></g><g class="d-path" data-path="pa_030"><path class="d-hit" d="M840 350L840 455L1443 455L1443 560"/><path class="d-line" d="M840 350L840 455L1443 455L1443 560"/><path class="d-head filled" transform="translate(840 350) rotate(-90)" d="M0 0L-9 -5L-18 0L-9 5Z"/><text class="d-mono" x="1449" y="544">xmi</text><text class="d-mono" x="1437" y="544" text-anchor="end">1</text></g><g class="d-path" data-path="pa_031"><path class="d-hit" d="M840 350L840 455L1609 455L1609 560"/><path class="d-line" d="M840 350L840 455L1609 455L1609 560"/><path class="d-head filled" transform="translate(840 350) rotate(-90)" d="M0 0L-9 -5L-18 0L-9 5Z"/><text class="d-mono" x="1615" y="544">imageExport</text><text class="d-mono" x="1603" y="544" text-anchor="end">1</text></g></g><g class="d-ports"></g></svg>
