<?xml version="1.0" encoding="UTF-8"?>
<svg xmlns="http://www.w3.org/2000/svg" viewBox="-26 -36 1232 692" width="1232" height="692"><style>
text{font-family:Helvetica, Arial, sans-serif;font-size:12px;fill:#111418;dominant-baseline:auto}
.d-mono{font-family:Menlo, Consolas, monospace;font-size:11px;fill:#2d343c}
.d-name{font-family:Helvetica, Arial, sans-serif;font-size:12.5px;font-weight:600;letter-spacing:.04em}
.d-italic{font-style:italic}
.d-comp{font-size:10.5px;font-style:italic;fill:#5b6470}
.d-frame{fill:none;stroke:#111418;stroke-width:1}
.d-frame-tab{fill:#ffffff;stroke:#111418;stroke-width:1}
.d-sym .d-shape{fill:#f4f8fd;stroke:#111418}
.d-sym .d-rule,.d-sym .d-stick{stroke:#111418}
.d-sym.c-b .d-shape{fill:#fdf8ee;stroke:#111418}
.d-sym.c-b .d-rule,.d-sym.c-b .d-stick{stroke:#111418}
.d-sym.c-c .d-shape{fill:#fbf3f6;stroke:#111418}
.d-sym.c-c .d-rule,.d-sym.c-c .d-stick{stroke:#111418}
.d-sym.c-n .d-shape{fill:#fffbe6;stroke:#5b6470}
.d-sym.c-n .d-rule,.d-sym.c-n .d-stick{stroke:#5b6470}
.d-shape{stroke-width:1.2}
.d-shape.dashed{stroke-dasharray:6 4}
.d-rule{stroke-width:.8;opacity:.55;fill:none}
.d-stick{fill:none;stroke-width:1.5}
.d-port{fill:#ffffff;stroke:#111418;stroke-width:1.2}
.d-port-dir{fill:#111418;stroke:none}
.d-line{fill:none;stroke:#2d343c;stroke-width:1.2}
.d-line.dashed{stroke-dasharray:6 4}
.d-head{fill:none;stroke:#2d343c;stroke-width:1.2}
.d-head.filled{fill:#2d343c}
.d-head.hollow{fill:#ffffff}
.d-hit{fill:none;stroke:transparent;stroke-width:12}
.d-label-bg{fill:#ffffff;opacity:.85}
</style><rect x="-26" y="-36" width="1232" height="692" fill="#fff"/><rect class="d-frame" x="-10" y="-20" width="1200" height="660"/><path class="d-frame-tab" d="M-10 -20h278.8v14l-10 10H-10z"/><text class="d-mono" x="0" y="-4">bdd [package] Toolkit [In the toolkit]</text><g class="d-symbols"><g class="d-sym " data-sym="sy_043" transform="translate(40 40)"><rect class="d-shape" width="200" height="50"/><text class="d-mono" x="100" y="19" text-anchor="middle">«block»</text><text class="d-name" x="100" y="36" text-anchor="middle">shell-kit</text></g><g class="d-sym " data-sym="sy_044" transform="translate(460 40)"><rect class="d-shape" width="260" height="50"/><text class="d-mono" x="130" y="19" text-anchor="middle">«block»</text><text class="d-name" x="130" y="36" text-anchor="middle">SysML Modeler</text></g><g class="d-sym " data-sym="sy_045" transform="translate(900 40)"><rect class="d-shape" width="240" height="50"/><text class="d-mono" x="120" y="19" text-anchor="middle">«block»</text><text class="d-name" x="120" y="36" text-anchor="middle">Cameo / MagicDraw</text></g><g class="d-sym " data-sym="sy_046" transform="translate(260 300)"><rect class="d-shape" width="200" height="50"/><text class="d-mono" x="100" y="19" text-anchor="middle">«block»</text><text class="d-name" x="100" y="36" text-anchor="middle">ui-kit</text></g><g class="d-sym " data-sym="sy_047" transform="translate(620 300)"><rect class="d-shape" width="200" height="50"/><text class="d-mono" x="100" y="19" text-anchor="middle">«block»</text><text class="d-name" x="100" y="36" text-anchor="middle">sync-kit</text></g><g class="d-sym " data-sym="sy_048" transform="translate(900 300)"><rect class="d-shape" width="220" height="50"/><text class="d-mono" x="110" y="19" text-anchor="middle">«block»</text><text class="d-name" x="110" y="36" text-anchor="middle">toolkit-portal</text></g><g class="d-sym " data-sym="sy_049" transform="translate(620 540)"><rect class="d-shape" width="240" height="50"/><text class="d-mono" x="120" y="19" text-anchor="middle">«block»</text><text class="d-name" x="120" y="36" text-anchor="middle">Sync server</text></g></g><g class="d-paths"><g class="d-path" data-path="pa_048"><path class="d-hit" d="M460 65L350 65L240 65"/><path class="d-line dashed" d="M460 65L350 65L240 65"/><path class="d-head" transform="translate(240 65) rotate(180)" d="M-11 -5L0 0L-11 5"/><rect class="d-label-bg" x="335" y="47" width="140" height="15"/><text class="d-mono" x="405" y="58" text-anchor="middle">macos/ + src/host.js</text></g><g class="d-path" data-path="pa_049"><path class="d-hit" d="M720 65L810 65L900 65"/><path class="d-line dashed" d="M720 65L810 65L900 65"/><path class="d-head" transform="translate(900 65) rotate(0)" d="M-11 -5L0 0L-11 5"/><rect class="d-label-bg" x="751.1" y="47" width="27.8" height="15"/><text class="d-mono" x="765" y="58" text-anchor="middle">XMI</text></g><g class="d-path" data-path="pa_050"><path class="d-hit" d="M525 90L525 195L360 195L360 300"/><path class="d-line dashed" d="M525 90L525 195L360 195L360 300"/><path class="d-head" transform="translate(360 300) rotate(90)" d="M-11 -5L0 0L-11 5"/><rect class="d-label-bg" x="385.7" y="177" width="113.6" height="15"/><text class="d-mono" x="442.5" y="188" text-anchor="middle">vendored ui-kit/</text></g><g class="d-path" data-path="pa_051"><path class="d-hit" d="M590 90L590 195L720 195L720 300"/><path class="d-line dashed" d="M590 90L590 195L720 195L720 300"/><path class="d-head" transform="translate(720 300) rotate(90)" d="M-11 -5L0 0L-11 5"/><rect class="d-label-bg" x="581.7" y="177" width="146.6" height="15"/><text class="d-mono" x="655" y="188" text-anchor="middle">vendored sync-kit/js/</text></g><g class="d-path" data-path="pa_052"><path class="d-hit" d="M1010 300L1010 195L655 195L655 90"/><path class="d-line dashed" d="M1010 300L1010 195L655 195L655 90"/><path class="d-head" transform="translate(655 90) rotate(-90)" d="M-11 -5L0 0L-11 5"/><rect class="d-label-bg" x="775.7" y="177" width="113.6" height="15"/><text class="d-mono" x="832.5" y="188" text-anchor="middle">toolkit-app.json</text></g><g class="d-path" data-path="pa_053"><path class="d-hit" d="M720 350L720 445L740 445L740 540"/><path class="d-line dashed" d="M720 350L720 445L740 445L740 540"/><path class="d-head" transform="translate(740 540) rotate(90)" d="M-11 -5L0 0L-11 5"/><rect class="d-label-bg" x="726" y="390.5" width="93.8" height="15"/><text class="d-mono" x="772.9" y="401.5" text-anchor="middle">/w/sysml/sync</text></g></g><g class="d-ports"></g></svg>
